<?xml version="1.0" encoding="utf-8"?>
<!-- Generator: Adobe Illustrator 26.5.0, SVG Export Plug-In . SVG Version: 6.00 Build 0)  -->
<svg version="1.1" id="Layer_1" xmlns="http://www.w3.org/2000/svg" xmlns:xlink="http://www.w3.org/1999/xlink" x="0px" y="0px"
	 viewBox="0 0 53.7 53.7" style="enable-background:new 0 0 53.7 53.7;" xml:space="preserve">
<style type="text/css">
	.st0{clip-path:url(#SVGID_00000057828514697450021780000001844875496215391401_);}
	.st1{clip-path:url(#SVGID_00000031886103068340513800000003494804543096755597_);}
	.st2{fill:#9CA2A6;}
	.st3{fill:#FFFFFF;}
	.st4{fill:url(#SVGID_00000062190773741372021560000002409006206609731984_);stroke:#FFFFFF;stroke-width:4;stroke-miterlimit:10;}
	.st5{fill:url(#SVGID_00000156570431972931455330000013975946607431896763_);}
	.st6{fill:url(#SVGID_00000018949325176913352240000010255176807865262762_);stroke:#FFFFFF;stroke-width:4;stroke-miterlimit:10;}
	.st7{fill:url(#SVGID_00000126323145962322394420000012677751218865481901_);}
	.st8{fill:url(#SVGID_00000133495526796695586510000007966339614167350411_);stroke:#FFFFFF;stroke-width:4;stroke-miterlimit:10;}
	.st9{fill:url(#SVGID_00000080204996277685111550000011526235405257735849_);}
	.st10{fill:url(#SVGID_00000030467498912245607600000017596524681939667618_);}
	.st11{fill:url(#SVGID_00000134955210801925340990000016472848911995426460_);}
	.st12{fill:url(#SVGID_00000035491995803953738020000001924749281891771803_);}
	.st13{fill:url(#SVGID_00000173855428999944129510000003930565876531539347_);}
	.st14{fill:url(#SVGID_00000149340189630316381820000004139239701707469236_);}
	.st15{fill:url(#SVGID_00000099627380607324271510000011341067779815944071_);}
	.st16{fill:#9CA2A6;stroke:#FFFFFF;stroke-width:0.8;stroke-miterlimit:10;}
	
		.st17{fill:#FFFFFF;stroke:url(#SVGID_00000049201494856847449560000004168449811288569476_);stroke-width:0.5;stroke-miterlimit:10;}
	.st18{fill:url(#SVGID_00000029753775307443152510000012493004360316081835_);}
	
		.st19{fill:#FFFFFF;stroke:url(#SVGID_00000034799915429634050340000006499947441409167020_);stroke-width:0.5;stroke-miterlimit:10;}
	.st20{fill:url(#SVGID_00000182488634636490993090000009224150183361220286_);}
	
		.st21{fill:#FFFFFF;stroke:url(#SVGID_00000158023204424519136940000010577081347150315417_);stroke-width:0.5;stroke-miterlimit:10;}
	.st22{fill:url(#SVGID_00000053534391880456572180000013540462876470536590_);}
	.st23{fill:url(#SVGID_00000171709251365570346330000004633735686334369152_);}
	.st24{fill:url(#SVGID_00000049912556945289153160000005062463204617882513_);}
	.st25{fill:url(#SVGID_00000012453976507156437260000000522411850219657619_);}
	.st26{fill:url(#SVGID_00000022521021741581665750000015034004669166254744_);}
	.st27{fill:url(#SVGID_00000044885942617169474610000009767584821088482179_);}
	.st28{fill:url(#SVGID_00000170269708711652184830000006235758879606552228_);}
	.st29{fill:url(#SVGID_00000057865632667255639370000006896404366986590096_);}
	.st30{fill:url(#SVGID_00000101085899647488651690000006186358415437444522_);}
	.st31{fill:url(#SVGID_00000068635554918574937810000010915229527892337049_);}
	.st32{stroke:#000000;stroke-width:11;stroke-miterlimit:10;}
</style>
<g>
	<path class="st2" d="M32.9,20.8l-7-6.1l-7,6.1l-1.2-1.2l8.2-7.2l8.2,7.2L32.9,20.8z M32.5,23.4L25.8,29l-6.5-5.7v-1.2l6.6-5.8
		l6.6,5.8V23.4z M27.5,25.5v-2.8h-3.3v2.8H27.5z M24.7,32.1l-7-6.1l-7,6.1l-1.2-1.2l8.2-7.2l8.2,7.2L24.7,32.1z M41.1,32.1l-7-6.1
		l-7,6.1l-1.2-1.2l8.2-7.2l8.2,7.2L41.1,32.1z M17.6,27.6l6.6,5.8v5.8H11.1v-5.8L17.6,27.6z M34.1,27.6l6.6,5.8v5.8H27.5v-5.8
		L34.1,27.6z M19.3,37.5v-3.3H16v3.3H19.3z M35.8,37.5v-3.3h-3.3v3.3H35.8z"/>
</g>
<g>
	
		<linearGradient id="SVGID_00000139254162319680125810000014380300594572506243_" gradientUnits="userSpaceOnUse" x1="27.976" y1="37.1231" x2="44.8352" y2="37.1231">
		<stop  offset="0" style="stop-color:#E87A38"/>
		<stop  offset="1" style="stop-color:#EF4230"/>
	</linearGradient>
	<circle style="fill:url(#SVGID_00000139254162319680125810000014380300594572506243_);" cx="36.4" cy="37.1" r="8.4"/>
	<g>
		<path class="st3" d="M35.3,42.7h-2.5c-0.2,0-0.4-0.2-0.4-0.4v-8.1c0-0.2,0.2-0.4,0.4-0.4c0,0,0,0,0,0h3.8c1.3,0,2,0.6,2,1.7
			c0,0.5-0.2,1.7-2.3,1.7h-0.9c-0.2,0-0.4-0.2-0.4-0.4c0-0.2,0.2-0.4,0.4-0.4h0.9c1.1,0,1.6-0.3,1.6-1c0-0.6-0.2-1-1.3-1h-3.5V42H35
			v-1.1c0-0.2,0.2-0.4,0.4-0.4c0.2,0,0.4,0.2,0.4,0.4v1.4C35.7,42.5,35.5,42.7,35.3,42.7z M40,42.6c-2.1,0-2.8-1.2-3.2-2.1
			c-0.4-0.7-0.6-1.1-1.2-1.1c-0.2,0-0.4-0.2-0.4-0.3c0-0.2,0.2-0.4,0.3-0.4c2.2,0,3.1-0.5,3.1-0.5c0,0,0,0,0,0
			c1.1-0.5,1.6-1.3,1.6-2.6c0-2.3-1.2-3.3-4-3.3h-4.8c-0.2,0-0.4-0.2-0.4-0.4c0-0.2,0.2-0.4,0.4-0.4h4.8c1.6,0,2.7,0.3,3.5,1
			c0.8,0.7,1.2,1.7,1.2,3.1c0,1.5-0.7,2.6-2,3.2c-0.1,0-0.8,0.3-2.1,0.5c0.2,0.3,0.4,0.6,0.5,0.9c0.5,0.9,0.9,1.7,2.6,1.7
			c0.5,0,0.8,0,1-0.1l-0.1-1.4c0,0,0,0,0,0c-0.4,0-0.8-0.1-1.1-0.4c-0.1-0.1-0.2-0.4,0-0.5c0.1-0.1,0.4-0.2,0.5,0
			c0.2,0.2,0.4,0.2,0.6,0.2c0.1,0,0.3,0,0.3,0c0.1,0,0.2,0,0.3,0.1c0.1,0.1,0.1,0.2,0.1,0.3l0.2,2.1c0,0.2-0.1,0.3-0.2,0.4
			C41.4,42.5,41,42.6,40,42.6z"/>
	</g>
</g>
</svg>
