<svg id="a" height="20" width="20" xmlns="http://www.w3.org/2000/svg" viewBox="0 0 20 20"><g><polygon points="15.11586 5.97116 15.11586 1.99166 13.12902 1.99166 13.12902 3.98432 9.1437 -.001 1.64705 7.49565 2.70338 8.55198 9.1437 2.11166 15.58402 8.55198 16.64035 7.49565 15.11586 5.97116" fill="#9ca2a7"/><path d="M3.17318,9.49086v5.94357h5.42405v-3.33433c0-.21123,.04006-.41117,.12-.59381-.75933-.05135-1.36462-.68504-1.36462-1.46167s.65663-1.46732,1.46732-1.46732h4.4706c.33687,0,.65663,.01147,.95927,.04571L9.14534,3.52435,3.17318,9.49086Z" fill="#9ca2a7"/></g><g><path d="M18.34057,19.34273l-.02367-.31757-.02367-.31757-.02367-.31757-.02367-.31757-.02367-.31757-.01329-.17754c-.0031-.04152-.01675-.08067-.0346-.11727-.02222-.04534-.05226-.08668-.09323-.11781-.02859-.02167-.06191-.03351-.09524-.0448-.05335-.01803-.10926-.02713-.16571-.01602-.00109,.00018-.09469,.0173-.20158,.02112-.01256,.00036-.02458,.00146-.03751,.00146-.10543,0-.19684-.01493-.28206-.04097-.08376-.02549-.16097-.06555-.23436-.11964-.0264-.01948-.05335-.03715-.07921-.06064-.0417-.03788-.09123-.05845-.1424-.07084-.11253-.02731-.23545,.00164-.31867,.09341-.07065,.07794-.09141,.17973-.07429,.27587,.0122,.06847,.04115,.13475,.09669,.18519,.01202,.01093,.02549,.01803,.03751,.02859,.06519,.05572,.13202,.10725,.20212,.14986,.07612,.04625,.15496,.08558,.23763,.11654,.09032,.03387,.18519,.05736,.2837,.0732,.08777,.01402,.17827,.02258,.27314,.02258h.00146l.00419,.05554,.02367,.31757,.02367,.31757,.02367,.31757,.02276,.30483c-.09906,.01566-.23071,.03168-.39351,.0437-.1098,.00801-.23873,.01329-.37876,.01602-.05372,.00109-.10379,.00291-.16206,.00291-.0692,0-.12455-.00947-.1892-.01256-.11563-.00546-.23527-.00801-.33779-.0224-.10689-.01511-.19794-.04134-.2919-.06555-.09578-.02458-.18701-.05244-.27059-.08558-.0854-.03369-.17281-.0661-.2471-.1078-.07648-.04297-.14167-.09414-.20795-.1444-.06719-.05099-.13002-.10525-.18847-.16279-.05918-.05809-.11781-.11672-.16971-.18046-.05244-.06446-.10197-.13111-.14877-.20012-.04698-.0692-.09105-.14112-.1342-.21378-.04297-.07266-.08613-.14568-.12692-.22052-.03751-.06883-.07502-.1373-.11235-.20704-.0031-.00601-.00674-.01202-.01001-.01784-.03933-.07393-.08249-.14859-.12401-.22343-.04134-.07429-.08358-.1464-.12856-.21906-.04407-.0712-.09396-.13803-.14294-.2054-.03168-.04352-.05791-.09141-.09232-.13275,.0956-.00965,.18009-.0213,.26822-.03241,.15351-.0193,.29663-.04006,.4281-.06246,.16698-.02841,.32304-.05791,.4556-.08832,.21505-.04917,.3824-.09797,.51114-.1404,.16862-.05554,.26932-.09961,.30082-.11454,.14149-.06118,.2726-.1302,.39842-.20285,.44176-.25493,.78847-.57924,1.03594-.97366,.11508-.18337,.20285-.38586,.27551-.59891,.04917-.14367,.0885-.29408,.11836-.45105,.02385-.12637,.04297-.25602,.05445-.39096,.01001-.11781,.02039-.23508,.02076-.35945,0-.00419,.00073-.00801,.00073-.0122,0-.10889-.00674-.21232-.01238-.31685-.00583-.10744-.01493-.21214-.02659-.31484-.01165-.10215-.02349-.20413-.04097-.30137-.01748-.09651-.03915-.18956-.06246-.28134-.02313-.09123-.05044-.179-.07921-.26549-.02859-.08613-.05827-.17153-.0925-.25293-.03423-.08103-.07065-.15988-.11035-.23618-.03951-.07593-.08413-.14732-.12911-.21851-.04498-.07084-.09141-.14058-.14185-.20668-.05026-.06592-.10161-.13074-.15733-.19193-.05554-.06082-.11654-.1169-.17754-.17299-.03697-.03405-.07084-.0712-.1098-.10343-.02513-.02076-.05372-.03824-.07958-.05845-.0661-.05117-.13202-.10252-.20322-.14895-.07102-.04643-.14786-.08759-.22398-.12929s-.15496-.08085-.23636-.11781c-.08121-.03697-.16206-.07411-.24856-.10634-.08613-.03205-.177-.06009-.26841-.08759-.09105-.0275-.18574-.0519-.28206-.07484-.09596-.02294-.19229-.04552-.29372-.06392-.1007-.01821-.20504-.03369-.31102-.04753-.10525-.01384-.21487-.0244-.32559-.03387-.11017-.00947-.2207-.01876-.33615-.02404-.11436-.00528-.23199-.00801-.35181-.00929-.03387-.00036-.06501-.00255-.09942-.00255h-4.47006c-.18027,0-.3265,.14622-.3265,.3265,0,.05772,.01894,.10907,.04534,.15606,.04243,.07593,.11235,.13056,.1983,.15351,.02713,.00728,.05354,.01675,.08285,.01675h4.47006c.04407,0,.08431,.00255,.12747,.0031,.11945,.00146,.23873,.00328,.35199,.0091,.11527,.00601,.22507,.01584,.33378,.02622,.11017,.01056,.21596,.0244,.31958,.03951,.10489,.01548,.20668,.03296,.30501,.05317,.09942,.02039,.19703,.04225,.28971,.06756,.09378,.02567,.18519,.05317,.27205,.08413,.08795,.03132,.17044,.06701,.25147,.10361,.08176,.03697,.15897,.07757,.23381,.12018,.07539,.04297,.14732,.08868,.2156,.13712,.06883,.04898,.13511,.09997,.19684,.15478,.06228,.05518,.12255,.11181,.17772,.17299,.05554,.06137,.10744,.12583,.15587,.19338,.04862,.06774,.09214,.14021,.13366,.21433,.0417,.07429,.07903,.15241,.11363,.23308,.03478,.08067,.06592,.1648,.0936,.25184,.02786,.08704,.05263,.177,.07357,.27059,.02094,.09341,.0397,.1892,.0539,.28935,.0142,.09979,.02677,.20121,.03423,.30756,.00747,.10598,.01056,.21651,.01147,.32905,0,.01803,.00182,.0346,.00182,.05299,0,.1047-.00856,.20212-.01602,.30027-.01056,.13639-.02859,.2664-.0539,.39041-.03369,.16534-.07575,.32358-.13621,.4678-.23181,.55266-.66228,.95472-1.30944,1.23333-.00164,.00073-.00364,.00164-.00564,.00255-.0031,.00146-.00637,.00291-.00892,.00401-.00382,.00182-.18428,.08194-.54118,.17299-.13129,.03351-.28552,.06756-.46908,.10088-.12983,.02367-.27514,.04534-.43193,.06592-.12692,.01675-.26404,.03114-.40917,.04461-.12838,.01202-.25384,.0244-.39678,.03296-.11672,.00692-.24929,.00929-.37603,.01347-.10179,.00328-.19375,.00965-.3021,.01074-.03259,.00036-.06228,.0102-.09178,.01948-.09724,.03041-.17445,.10124-.20904,.19648-.01275,.03533-.02222,.07247-.02185,.11235,.00036,.07065,.02786,.13257,.06646,.18574,.05208,.07193,.12965,.12,.22197,.13129,.01311,.00164,.02458,.00765,.03806,.00765,.10325,0,.19193,.01548,.27514,.03806,.08995,.0244,.17263,.05827,.24601,.10871,.06537,.0448,.12492,.10325,.18246,.16826,.05135,.05809,.10143,.12437,.15077,.1983,.0437,.06574,.08795,.13712,.13275,.21505,.03988,.06956,.0814,.14404,.12401,.22325,.01602,.02968,.03096,.05663,.04753,.08777,.02349,.04407,.05008,.09159,.07466,.1373,.0397,.07375,.0803,.14695,.12401,.22325,.04115,.07156,.08613,.14367,.13202,.21578,.04425,.06938,.09323,.13694,.14313,.2054,.04862,.06683,.09487,.13439,.14986,.19921,.05208,.06155,.11472,.11818,.17335,.17681,.05809,.05791,.11563,.11581,.181,.16989,.06301,.05226,.13457,.09924,.20522,.14695,.06974,.04698,.14167,.09178,.21942,.13366,.07593,.04079,.15788,.07721,.24237,.11217,.08322,.03442,.17117,.06483,.26313,.0925,.0905,.02731,.18574,.05135,.28552,.07156,.09851,.02003,.20322,.03478,.31138,.04734,.10689,.01238,.21797,.02094,.33487,.02513,.05609,.002,.10252,.0122,.16115,.0122,.06829,0,.12838-.002,.1912-.00346,.13785-.00291,.26622-.00801,.37857-.01584,.16134-.01129,.29536-.0264,.40698-.04261,.25165-.03642,.38386-.07666,.40771-.08449,.14185-.04716,.23344-.18483,.22234-.33396l-.01202-.16206h.00055Z" fill="#9ca2a7"/><path d="M12.51263,18.02199c-.02768-.00765-.05481-.01712-.08486-.01712-.18027,0-.32631,.14604-.32631,.3265v1.01645h-1.71242v-6.91959h3.25203c.04316,0,.07666,.00437,.11672,.00564,.12273,.00419,.23199,.01457,.3285,.03114,.10762,.01839,.20103,.04388,.27988,.07684,.08704,.03642,.16352,.07885,.2207,.13238,.06282,.05882,.10598,.13038,.13967,.2085,.03514,.08158,.06009,.17099,.07175,.27241,.00819,.07102,.01238,.14622,.01238,.22653,0,.04024-.00783,.07557-.01202,.11308-.0437,.39314-.31047,.64826-.80559,.75715-.12382,.02713-.26549,.04297-.41736,.05226-.07721,.00473-.15332,.0102-.238,.0102h-.84455c-.00601,0-.01093,.0031-.01693,.00346-.15806,.00856-.28188,.12856-.30155,.28334-.00164,.01366-.00801,.02549-.00801,.0397,0,.08668,.03514,.16443,.09032,.22288,.05955,.06319,.14258,.10361,.23618,.10361h.84455c.09396,0,.18046-.00473,.26622-.00983,.14786-.00874,.28534-.02385,.41081-.04607,.20049-.03569,.37257-.08741,.52188-.15059,.43921-.18555,.67448-.47017,.79703-.74914,.07047-.16024,.10525-.31721,.11964-.45232,.00692-.06483,.0102-.12546,.0102-.17754,0-.05718-.00856-.10652-.01184-.16061-.00656-.10689-.01839-.20923-.03806-.3041-.01967-.09469-.04297-.18592-.07575-.26859-.03278-.08231-.07138-.15915-.11727-.2298-.04552-.07011-.10106-.13147-.15952-.18992-.05827-.05809-.12455-.10907-.19575-.15587-.07065-.04643-.14768-.08741-.23108-.12273-.08285-.03496-.16971-.06646-.26531-.0905-.09469-.02385-.19102-.04643-.29827-.05955-.1058-.01311-.2227-.01693-.34088-.01948-.03077-.00073-.05718-.0051-.08868-.0051h-3.57834c-.18027,0-.3265,.14604-.3265,.3265v7.5724c0,.07866,.0315,.14786,.07775,.20431,.057,.0692,.13912,.11508,.23472,.11927,.00492,.00018,.00892,.00291,.01402,.00291h2.36523c.18027,0,.3265-.14604,.3265-.32631v-1.34295c0-.057-.01857-.10798-.04425-.15478-.04188-.07612-.11162-.13093-.19721-.1546l-.00037-.00036Z" fill="#9ca2a7"/></g></svg>