<?xml version="1.0" encoding="utf-8"?>
<!-- Generator: Adobe Illustrator 26.5.0, SVG Export Plug-In . SVG Version: 6.00 Build 0)  -->
<svg version="1.1" id="Layer_1" xmlns="http://www.w3.org/2000/svg" xmlns:xlink="http://www.w3.org/1999/xlink" x="0px" y="0px"
	 viewBox="0 0 53.7 53.7" style="enable-background:new 0 0 53.7 53.7;" xml:space="preserve">
<style type="text/css">
	.st0{clip-path:url(#SVGID_00000165204249041465714820000010581044758244571804_);}
	.st1{clip-path:url(#SVGID_00000021836978217538017200000017625324259228116098_);}
	.st2{fill:#9CA2A6;}
	.st3{fill:#FFFFFF;}
	.st4{fill:url(#SVGID_00000056413892453137687720000004141860090598477700_);stroke:#FFFFFF;stroke-width:4;stroke-miterlimit:10;}
	.st5{fill:url(#SVGID_00000018947953235057592290000001322865379843353217_);}
	.st6{fill:url(#SVGID_00000128458258541310143110000004869316444624675202_);stroke:#FFFFFF;stroke-width:4;stroke-miterlimit:10;}
	.st7{fill:url(#SVGID_00000167368218426166684960000009157664238666896030_);}
	.st8{fill:url(#SVGID_00000148650550722693394180000008359043020841706424_);stroke:#FFFFFF;stroke-width:4;stroke-miterlimit:10;}
	.st9{fill:url(#SVGID_00000030477373995607148810000013600990687499162506_);}
	.st10{fill:url(#SVGID_00000059302218547456018220000017279479123998557357_);}
	.st11{fill:url(#SVGID_00000127013504608079848140000011773143854724154244_);}
	.st12{fill:url(#SVGID_00000140707939695178252220000016409103879527222968_);}
	.st13{fill:url(#SVGID_00000000932768337987663000000002517757718739213201_);}
	.st14{fill:url(#SVGID_00000126295419951042503510000010746114993054060434_);}
	.st15{fill:url(#SVGID_00000049908741204774252160000012254928601457954974_);}
	.st16{fill:#9CA2A6;stroke:#FFFFFF;stroke-width:0.8;stroke-miterlimit:10;}
	
		.st17{fill:#FFFFFF;stroke:url(#SVGID_00000183939894829991474470000006759814548340485560_);stroke-width:0.5;stroke-miterlimit:10;}
	.st18{fill:url(#SVGID_00000093871444255852900030000018062357318466663833_);}
	
		.st19{fill:#FFFFFF;stroke:url(#SVGID_00000060730896096351693030000010615563952302844060_);stroke-width:0.5;stroke-miterlimit:10;}
	.st20{fill:url(#SVGID_00000083064976366849791320000007151008476625818503_);}
	
		.st21{fill:#FFFFFF;stroke:url(#SVGID_00000063603400372597306280000016434210867422630321_);stroke-width:0.5;stroke-miterlimit:10;}
	.st22{fill:url(#SVGID_00000114043175071718165280000018265478967038383015_);}
	.st23{fill:url(#SVGID_00000109030808756001953160000014138531824868932743_);}
	.st24{fill:url(#SVGID_00000015324877543746901420000009767745684781855135_);}
	.st25{fill:url(#SVGID_00000032608818303108590580000014863194762484015031_);}
	.st26{fill:url(#SVGID_00000149372297701825375830000000574189143302237106_);}
	.st27{fill:url(#SVGID_00000042709988933621202820000005425857496151809157_);}
	.st28{fill:url(#SVGID_00000103260726630625893320000011671363549873632931_);}
	.st29{fill:url(#SVGID_00000043416082017421406150000013672655608223274629_);}
	.st30{fill:url(#SVGID_00000134959047106636608490000017515068496687043499_);}
	.st31{fill:url(#SVGID_00000118358153385903921140000012007598330641270461_);}
	.st32{stroke:#000000;stroke-width:11;stroke-miterlimit:10;}
</style>
<path class="st2" d="M37.2,23.6v-7h-3.5v3.5l-7-7L13.6,26.3l1.8,1.8l11.3-11.3L38,28.1l1.9-1.8L37.2,23.6z"/>
<polygon class="st2" points="37.2,29.8 37.2,40.2 16.2,40.2 16.2,29.8 26.7,19.3 "/>
<g>
	
		<linearGradient id="SVGID_00000128459177149506136360000015669009965169256832_" gradientUnits="userSpaceOnUse" x1="25.9991" y1="37.1231" x2="42.8584" y2="37.1231">
		<stop  offset="0" style="stop-color:#E87A38"/>
		<stop  offset="1" style="stop-color:#EF4230"/>
	</linearGradient>
	<circle style="fill:url(#SVGID_00000128459177149506136360000015669009965169256832_);" cx="34.4" cy="37.1" r="8.4"/>
	<g>
		<path class="st3" d="M33.4,42.7h-2.5c-0.2,0-0.4-0.2-0.4-0.4v-8.1c0-0.2,0.2-0.4,0.4-0.4c0,0,0,0,0,0h3.8c1.3,0,2,0.6,2,1.7
			c0,0.5-0.2,1.7-2.3,1.7h-0.9c-0.2,0-0.4-0.2-0.4-0.4c0-0.2,0.2-0.4,0.4-0.4h0.9c1.1,0,1.6-0.3,1.6-1c0-0.6-0.2-1-1.3-1h-3.5V42H33
			v-1.1c0-0.2,0.2-0.4,0.4-0.4c0.2,0,0.4,0.2,0.4,0.4v1.4C33.7,42.5,33.6,42.7,33.4,42.7z M38,42.6c-2.1,0-2.8-1.2-3.2-2.1
			c-0.4-0.7-0.6-1.1-1.2-1.1c-0.2,0-0.4-0.2-0.4-0.3c0-0.2,0.2-0.4,0.3-0.4c2.2,0,3.1-0.5,3.1-0.5c0,0,0,0,0,0
			c1.1-0.5,1.6-1.3,1.6-2.6c0-2.3-1.2-3.3-4-3.3h-4.8c-0.2,0-0.4-0.2-0.4-0.4c0-0.2,0.2-0.4,0.4-0.4h4.8c1.6,0,2.7,0.3,3.5,1
			c0.8,0.7,1.2,1.7,1.2,3.1c0,1.5-0.7,2.6-2,3.2c-0.1,0-0.8,0.3-2.1,0.5c0.2,0.3,0.4,0.6,0.5,0.9c0.5,0.9,0.9,1.7,2.6,1.7
			c0.5,0,0.8,0,1-0.1l-0.1-1.4c0,0,0,0,0,0c-0.4,0-0.8-0.1-1.1-0.4c-0.1-0.1-0.2-0.4,0-0.5c0.1-0.1,0.4-0.2,0.5,0
			c0.2,0.2,0.4,0.2,0.6,0.2c0.1,0,0.3,0,0.3,0c0.1,0,0.2,0,0.3,0.1c0.1,0.1,0.1,0.2,0.1,0.3l0.2,2.1c0,0.2-0.1,0.3-0.2,0.4
			C39.4,42.5,39,42.6,38,42.6z"/>
	</g>
</g>
</svg>
