<?xml version="1.0" encoding="utf-8"?>
<!-- Generator: Adobe Illustrator 26.5.0, SVG Export Plug-In . SVG Version: 6.00 Build 0)  -->
<svg version="1.1" id="Layer_1" xmlns="http://www.w3.org/2000/svg" xmlns:xlink="http://www.w3.org/1999/xlink" x="0px" y="0px"
	 viewBox="0 0 53.7 53.7" style="enable-background:new 0 0 53.7 53.7;" xml:space="preserve">
<style type="text/css">
	.st0{clip-path:url(#SVGID_00000028286949405356212780000014352716258570071174_);}
	.st1{clip-path:url(#SVGID_00000089569388981357833430000003491396214164773542_);}
	.st2{fill:#9CA2A6;}
	.st3{fill:#FFFFFF;}
	.st4{fill:url(#SVGID_00000009574636135079288870000007141957507754063265_);stroke:#FFFFFF;stroke-width:4;stroke-miterlimit:10;}
	.st5{fill:url(#SVGID_00000095340934922632665770000005273897105032408240_);}
	.st6{fill:url(#SVGID_00000140701926407845330420000006882571015920157627_);stroke:#FFFFFF;stroke-width:4;stroke-miterlimit:10;}
	.st7{fill:url(#SVGID_00000086681895237081225270000010989766191516406669_);}
	.st8{fill:url(#SVGID_00000034784579877503198610000006822307385093316013_);stroke:#FFFFFF;stroke-width:4;stroke-miterlimit:10;}
	.st9{fill:url(#SVGID_00000017485224983450652250000011579435816821867941_);}
	.st10{fill:url(#SVGID_00000092438115517996517650000001706835664090797458_);}
	.st11{fill:url(#SVGID_00000121990244451327085440000001718529283043992977_);}
	.st12{fill:url(#SVGID_00000119117218794889161270000012244257424173338512_);}
	.st13{fill:url(#SVGID_00000013879849501746380400000000194382657736661654_);}
	.st14{fill:url(#SVGID_00000163036128150434377440000005025811292656630191_);}
	.st15{fill:url(#SVGID_00000088113560382425888310000018011385666206780825_);}
	.st16{fill:#9CA2A6;stroke:#FFFFFF;stroke-width:0.8;stroke-miterlimit:10;}
	
		.st17{fill:#FFFFFF;stroke:url(#SVGID_00000022539775087251914080000012706234629707324335_);stroke-width:0.5;stroke-miterlimit:10;}
	.st18{fill:url(#SVGID_00000093861406701152894250000015402026383554308274_);}
	
		.st19{fill:#FFFFFF;stroke:url(#SVGID_00000075164924322332339880000009048866032830248323_);stroke-width:0.5;stroke-miterlimit:10;}
	.st20{fill:url(#SVGID_00000176017275401646897690000012959373936634315940_);}
	
		.st21{fill:#FFFFFF;stroke:url(#SVGID_00000119103799826375814630000010135401276522818218_);stroke-width:0.5;stroke-miterlimit:10;}
	.st22{fill:url(#SVGID_00000173151080960139257170000009915481187575219130_);}
	.st23{fill:url(#SVGID_00000056411055194437875210000000755394930717380743_);}
	.st24{fill:url(#SVGID_00000078764225285229852610000005156112429181107612_);}
	.st25{fill:url(#SVGID_00000106107089362424117260000015739344028900186540_);}
	.st26{fill:url(#SVGID_00000179640863053078552840000001054379988982547330_);}
	.st27{fill:url(#SVGID_00000161617187338054451880000017701089340531194766_);}
	.st28{fill:url(#SVGID_00000010991610335924073930000017395257638874587834_);}
	.st29{fill:url(#SVGID_00000142860628320178793370000004604477596579244460_);}
	.st30{fill:url(#SVGID_00000142874071115682233620000009499855369286763454_);}
	.st31{fill:url(#SVGID_00000071535213660350628250000010036966801363783043_);}
	.st32{stroke:#000000;stroke-width:11;stroke-miterlimit:10;}
</style>
<g>
	<path class="st16" d="M15.1,15.1c3.1,0,6.2,0,9.4,0c0,2.1,0,4.2,0,6.3c-1,0-2.1,0-3.1,0c0,1.1,0,2.1,0,3.2c3.2,0,6.4,0,9.6,0
		c0-1,0-2.1,0-3.1c-1,0-2.1,0-3.1,0c0-2.1,0-4.2,0-6.4c3.2,0,6.3,0,9.5,0c0,1.1,0,2.1,0,3.2c-1.1,0-2.1,0-3.2,0c0,1.1,0,2.1,0,3.2
		c1,0,2.1,0,3.1,0c0,1.1,0,2.1,0,3.1c-1,0-2.1,0-3.1,0c0,1.1,0,2.1,0,3.2c1,0,2.1,0,3.1,0c0,3.2,0,6.3,0,9.5c-2.1,0-4.2,0-6.3,0
		c0-1,0-2,0-3c1.1,0,2.2,0,3.3-0.1c0-1.1-0.1-2.1-0.1-3.2c-3.2,0-6.4,0-9.6,0c0,1.1,0,2.2,0,3.3c1,0,2.1,0,3.1,0c0,1,0,2,0,3.1
		c-1,0-2.1,0-3.1,0c0,1.1,0,2.2,0,3.3c5.3,0,10.6,0,16,0c0-9.5,0-19.1,0-28.6c-9.6,0-19.1,0-28.7-0.1c0,9.6,0,19.2,0,28.8
		c3.2,0,6.4,0,9.6,0c0-1.1,0-2.2,0-3.2c-2.1,0-4.2,0-6.3,0c0-2.1,0-4.2,0-6.2c1,0,2,0,3,0c0,1,0,2.1,0,3.1c1.1,0,2.2,0,3.3,0
		c0-2.1,0-4.3,0-6.4c-2.1,0-4.2,0-6.3,0C15.1,23.6,15.1,19.4,15.1,15.1z"/>
</g>
<g>
	
		<linearGradient id="SVGID_00000152253839088418904240000005378249556329143441_" gradientUnits="userSpaceOnUse" x1="26.5679" y1="37.1231" x2="43.4272" y2="37.1231">
		<stop  offset="0" style="stop-color:#E87A38"/>
		<stop  offset="1" style="stop-color:#EF4230"/>
	</linearGradient>
	<circle style="fill:url(#SVGID_00000152253839088418904240000005378249556329143441_);" cx="35" cy="37.1" r="8.4"/>
	<g>
		<path class="st3" d="M33.9,42.7h-2.5c-0.2,0-0.4-0.2-0.4-0.4v-8.1c0-0.2,0.2-0.4,0.4-0.4c0,0,0,0,0,0h3.8c1.3,0,2,0.6,2,1.7
			c0,0.5-0.2,1.7-2.3,1.7H34c-0.2,0-0.4-0.2-0.4-0.4c0-0.2,0.2-0.4,0.4-0.4h0.9c1.1,0,1.6-0.3,1.6-1c0-0.6-0.2-1-1.3-1h-3.5V42h1.8
			v-1.1c0-0.2,0.2-0.4,0.4-0.4c0.2,0,0.4,0.2,0.4,0.4v1.4C34.3,42.5,34.1,42.7,33.9,42.7z M38.6,42.6c-2.1,0-2.8-1.2-3.2-2.1
			c-0.4-0.7-0.6-1.1-1.2-1.1c-0.2,0-0.4-0.2-0.4-0.3c0-0.2,0.2-0.4,0.3-0.4c2.2,0,3.1-0.5,3.1-0.5c0,0,0,0,0,0
			c1.1-0.5,1.6-1.3,1.6-2.6c0-2.3-1.2-3.3-4-3.3H30c-0.2,0-0.4-0.2-0.4-0.4c0-0.2,0.2-0.4,0.4-0.4h4.8c1.6,0,2.7,0.3,3.5,1
			c0.8,0.7,1.2,1.7,1.2,3.1c0,1.5-0.7,2.6-2,3.2c-0.1,0-0.8,0.3-2.1,0.5c0.2,0.3,0.4,0.6,0.5,0.9c0.5,0.9,0.9,1.7,2.6,1.7
			c0.5,0,0.8,0,1-0.1l-0.1-1.4c0,0,0,0,0,0c-0.4,0-0.8-0.1-1.1-0.4c-0.1-0.1-0.2-0.4,0-0.5c0.1-0.1,0.4-0.2,0.5,0
			c0.2,0.2,0.4,0.2,0.6,0.2c0.1,0,0.3,0,0.3,0c0.1,0,0.2,0,0.3,0.1c0.1,0.1,0.1,0.2,0.1,0.3l0.2,2.1c0,0.2-0.1,0.3-0.2,0.4
			C40,42.5,39.6,42.6,38.6,42.6z"/>
	</g>
</g>
</svg>
